<svg xmlns="http://www.w3.org/2000/svg" xmlns:xlink="http://www.w3.org/1999/xlink" width="500" height="500" viewBox="0 0 132.292 132.292"><g fill="#2aa737"><use xlink:href="#B"/><use xlink:href="#B" x="30.124"/><path d="M72.152 70.85q0-19.437 8.196-28.932 8.24-9.495 24.632-9.495 5.598 0 8.778.672v11.062q-3.986-.896-7.882-.896-7.12 0-11.644 2.15-4.48 2.15-6.718 6.36-2.24 4.2-2.642 11.958h.582q4.434-7.614 14.197-7.614 8.778 0 13.75 5.51 4.97 5.51 4.97 15.227 0 10.48-5.912 16.616-5.912 6.09-16.392 6.09-7.255 0-12.675-3.36-5.374-3.36-8.33-9.808-2.91-6.45-2.91-15.54zM95.8 88.494q4.434 0 6.808-2.956 2.374-3 2.374-8.51 0-4.792-2.24-7.524-2.195-2.777-6.673-2.777-4.2 0-7.21 2.732-2.956 2.732-2.956 6.36 0 5.33 2.777 9.002 2.822 3.672 7.12 3.672z"/></g><defs ><path id="B" d="M13.92 92.257q0-3.762 2.015-5.688 2.015-1.926 5.867-1.926 3.717 0 5.733 1.97 2.06 1.97 2.06 5.643 0 3.538-2.06 5.598-2.06 2.015-5.733 2.015-3.762 0-5.822-1.97-2.06-2.015-2.06-5.643zm0-36.993q0-3.762 2.015-5.688 2.015-1.926 5.867-1.926 3.717 0 5.733 1.97 2.06 1.97 2.06 5.643 0 3.628-2.105 5.643-2.06 1.97-5.688 1.97-3.762 0-5.822-1.97-2.06-1.97-2.06-5.643z"/></defs></svg>